<svg viewBox="0 0 512 512" class="h-5 w-5 fill-current" xmlns="http://www.w3.org/2000/svg"><g transform="matrix(10.48 0 0 10.48 1565.8 256)"><g transform="matrix(.5 0 0 .5 -127.03 4.79)"><path transform="translate(-35.52 -56.5)" d="m62 23 9 58c1 7-4 12-11 12h-48c-6 0-13-3-12-9l11-61c1-2 2-3 4-3h44c1 0 3 2 3 3z"></path></g><g transform="matrix(.5 0 0 .5 -121.96 5.04)"><path transform="translate(-45.56 -57)" d="m72 23 8 59c1 6-4 12-10 12l-59-1s4-1 5-8c3-13 5-62 5-62 0-2 2-3 4-3h43c2 0 4 1 4 3z"></path></g><g transform="matrix(.5 0 0 .5 -122.35 -16.13)"><path transform="translate(-44.79 -15)" d="m29 28v-16c1-7 6-12 12-12h7c6 0 12 5 12 11l1 17c0 1-1 2-2 2s-1-1-1-2l-1-16c-1-5-4-8-9-8h-7c-4 0-8 3-8 8l-1 16c0 1-1 2-2 2s-2-1-1-2z"></path></g></g></svg>
